# xmcd
#
# Track frame offsets: 
#        150
#        10440
#        21300
#        31757
#        43164
#        53797
#        64665
#        76668
#        87349
#        97582
#        110869
#        123478
#
# Disc length: 1781 seconds
#
# Revision: 2
# Processed by: cddbd v1.5.2PL0 Copyright (c) Steve Scherf et al.
# Submitted via: ExactAudioCopy v0.90b4
#
DISCID=9106f30c
DTITLE=Everly Brothers - The Everly Brothers Sing Great Country Hits
DYEAR=1963
DGENRE=Country
TTITLE0=Oh, Lonesome Me
TTITLE1=Born To Lose
TTITLE2=Just One Time
TTITLE3=Send Me The Pillow You Dream On
TTITLE4=Release Me
TTITLE5=Please Help Me, I'm Falling
TTITLE6=I Walk The Line
TTITLE7=Lonely Street
TTITLE8=Silver Threads And Golden Needles
TTITLE9=I'm So Lonesome I Could Cry
TTITLE10=Sweet Dreams
TTITLE11=This Is The Last Song I'm Ever Going To Sing
EXTD=The Everly Brothers Sing Great Country Hits\n2005 Collector's Cho
EXTD=ice Music\n\n\n"Sing Great Country Hits" LP Originally Released O
EXTD=ctober 1963\nCompilation 'Sing Great Country' and 'Gone, Gone, Gone
EXTD=' Released October 11, 2005\n"Sing Great Country Hits" CD (Collec
EXTD=tor's Choice) Released July 12, 2005\n\n\nAMG EXPERT REVIEW: (Sin
EXTD=g Great Country Hits) The Everly Brothers' homage to some of the 
EXTD=best country songs of their era (and their authors and originator
EXTD=s) seems like a no-brainer today, and ought to be regarded as a c
EXTD=lassic record, right up there with their own Roots, not to mentio
EXTD=n as beloved as anything by the Louvin Brothers or even, say, the
EXTD=Brown's Ferry Four in its sheer beauty and simplicity. Instead, 
EXTD=partly thanks to the early Warner Bros. Records' inability to mar
EXTD=ket their LP releases (or do much else right), and also some unfo
EXTD=rtunate timing in its release, it's ended up overlooked by most f
EXTD=ans and listeners. Actually, swept aside would be more like it, a
EXTD=long with most of the Everlys' other LP work, by the tidal wave o
EXTD=f the British Invasion, which hit North American shores just two 
EXTD=and a half months after the album's release. Phil and Don do righ
EXTD=t, and then some, by Hank Williams, Don Gibson, Hank Locklin, et 
EXTD=al. - the singing is heavenly and the playing is spot-on perfect, 
EXTD=and even if the public overlooked it, one might easily presume th
EXTD=at Roger McGuinn, Gene Clark, and a few other soon-to-be-importan
EXTD=t folk-rockers heard at least some of these renditions. They're s
EXTD=till priceless, the singing is some of the most beautiful in the 
EXTD=Everlys' output, and the arrangements are models of creative simp
EXTD=licity -- and for fans of the duo, it's almost as essential a rec
EXTD=ord as Roots. [In 1997, the Collectors' Choice Music label reissu
EXTD=ed Sing Great Country Hits with seven additional bonus cuts.] -- 
EXTD=Bruce Eder \n \n\nAMAZON.COM CUSTOMER REVIEW (Sing Great Country 
EXTD=Hits]\nLong time Everly fan, January 18, 2007 \nBy  Roger Phillip
EXTD=s "Inveterate traveller" (Melbourne Aus.]\nI've tried all sorts o
EXTD=f ways to get this on cd, I've had a version taped on reel to ree
EXTD=l from a very primitive record player then on to a casette which 
EXTD=finally broke so its wonderful to have this album back in pristin
EXTD=e condition. \n\nSince I first heard it inthe mid sixties, I've h
EXTD=ad Knopfler - Chet Atkins ' Neck and Neck and find their are seve
EXTD=ral songs shared between the two, great version all. \n\nNaturall
EXTD=y, Murphy's law has followed me and having spent years trying to 
EXTD=track down this album, a local store I'd ordered it through month
EXTD=s ago has come up with it same week as you guys have.......never 
EXTD=rains but it pours.. its just a wonderful album..... thanks \n\n\n
EXTD=Half.com Album Notes\nLiner Note Author: Richie Unterberger.
EXTT0=
EXTT1=
EXTT2=
EXTT3=
EXTT4=
EXTT5=
EXTT6=
EXTT7=
EXTT8=
EXTT9=
EXTT10=
EXTT11=
PLAYORDER=
